<svg xmlns="http://www.w3.org/2000/svg" viewBox="0 0 750 500"><g id="freepik--background-simple--inject-13"><path d="M555.07,101.61l-1.84-4c-15.44-33.9-47.88-57.09-84.74-59.11a96.74,96.74,0,0,0-14.24.26c-34.11,3.18-66,24.9-81.86,55.69-9.3,18.12-13.86,39.7-29,53.15C323.61,165.08,294,162.18,268,158.29s-55.6-6.72-75.27,10.88c-12.32,11-17.85,28.11-18.93,44.69-2.86,43.91,22.92,86.54,59.29,110.52s81.69,31.11,125,27.6c60.7-4.92,121-31.05,160.87-77.73S575.69,159.53,555.07,101.61Z" style="fill:#f5f5f5"></path><circle cx="672.73" cy="232.29" r="41.84" style="fill:#f5f5f5"></circle><circle cx="279.72" cy="93.31" r="27.81" transform="translate(122.73 342.92) rotate(-76.28)" style="fill:#f5f5f5"></circle><circle cx="64.12" cy="375.54" r="27.81" transform="translate(-246.77 155.33) rotate(-45)" style="fill:#f5f5f5"></circle></g><g id="freepik--Floor--inject-13"><path d="M699.69,479.41c0,.14-145.38.26-324.67.26s-324.71-.12-324.71-.26,145.35-.26,324.71-.26S699.69,479.26,699.69,479.41Z" style="fill:#263238"></path></g><g id="freepik--Table--inject-13"><rect x="428.35" y="282.53" width="13.05" height="195.63" style="fill:#455a64"></rect><rect x="208.73" y="263.49" width="319.4" height="19.04" style="fill:#455a64"></rect><rect x="273.34" y="282.53" width="13.05" height="195.63" style="fill:#455a64"></rect><path d="M446.35,282.09c0,.15-52.94.26-118.23.26s-118.25-.11-118.25-.26,52.93-.26,118.25-.26S446.35,282,446.35,282.09Z" style="fill:#263238"></path><path d="M321.34,215.5a6.27,6.27,0,0,0-3.08,10.41H304.64V241h0a6.3,6.3,0,1,1,0,5.53h0v16.94h37.58V225.91h-14.8a6.28,6.28,0,0,0-6.08-10.41Z" style="fill:#263238"></path><path d="M316.41,242.24a6.2,6.2,0,0,0-4.34-4.54,6.29,6.29,0,0,0-6.06,1.46h0l-.14-13.35h-18a6.3,6.3,0,1,1-5.53,0H267.13v37.58h39.1L306,248.32h0A6.2,6.2,0,0,0,310.3,250,6.29,6.29,0,0,0,316.41,242.24Z" style="fill:#9868F0"></path><g style="opacity:0.30000000000000004"><path d="M267,244.28a7.67,7.67,0,0,0,7-1.56,9.25,9.25,0,0,0,3.13-6.58,11.69,11.69,0,0,0-2.08-7.07l4.68-3.33H267.13Z"></path></g></g><g id="freepik--speech-bubble-2--inject-13"><path d="M629.29,127,637,113.47a36.19,36.19,0,1,1,8.67,9.65v0Z" style="fill:#fff"></path><path d="M629.29,127l16.32-4-.07.2h0a.12.12,0,0,1,0-.18.12.12,0,0,1,.16,0A36.07,36.07,0,0,0,663,130.19a33,33,0,0,0,5.67.26c1-.06,2-.08,3-.17l3-.47a36.08,36.08,0,0,0,22.31-14.39,35.73,35.73,0,0,0,6-13.8,36.32,36.32,0,0,0-.44-15.88,35.11,35.11,0,0,0-7.65-14.67,35.7,35.7,0,0,0-13.75-9.82,36.56,36.56,0,0,0-16-2.48,35.33,35.33,0,0,0-14.7,4.33,36.34,36.34,0,0,0-17,20.84,38.7,38.7,0,0,0-1.6,11.64,36,36,0,0,0,5.26,17.83.11.11,0,0,1,0,.12c-5,8.55-7.34,12.69-7.78,13.46.43-.77,2.75-4.95,7.56-13.58v.13a36.11,36.11,0,0,1-5.41-18A39.22,39.22,0,0,1,633,83.82a36.7,36.7,0,0,1,17.18-21.14,35.73,35.73,0,0,1,14.89-4.41,37,37,0,0,1,16.23,2.5,36.3,36.3,0,0,1,13.94,9.95A35.68,35.68,0,0,1,703,85.61a36.91,36.91,0,0,1,.43,16.11,36.11,36.11,0,0,1-6.12,14,36.5,36.5,0,0,1-22.62,14.52l-3.06.46c-1,.08-2,.1-3,.16a32.7,32.7,0,0,1-5.73-.29,36.12,36.12,0,0,1-17.36-7.33l.18-.18,0,0a.13.13,0,0,1,0,.18l-.05,0Z" style="fill:#263238"></path><path d="M673,90.62h-2.23l-4.88-6.8V79.36s-3.45-.21-3,5.63,0,4.35,0,4.35-7.33,0-7.94.67c-.44.46-.64,7.74-.72,11.69a4.28,4.28,0,0,0,3,4.31,3.07,3.07,0,0,0,.79.11c1.83,0,11.17-1.49,11.17-1.49H673Z" style="fill:#9868F0"></path><polygon points="679.37 89.39 678 104.67 674.17 104.67 674.17 89.7 679.37 89.39" style="fill:#9868F0"></polygon></g><g id="freepik--speech-bubble-1--inject-13"><path d="M113.49,143.09s-.37.06-1,.3a4.52,4.52,0,0,0-2,1.75,4.35,4.35,0,0,0-.63,1.75,3.71,3.71,0,0,0,.37,2.06,4,4,0,0,0,7.57-.44,3.71,3.71,0,0,0,.12-2.1,4.46,4.46,0,0,0-3.07-3.16,9.77,9.77,0,0,0-1-.18.76.76,0,0,1,.26,0,1.92,1.92,0,0,1,.33,0,2,2,0,0,1,.43.08,4.5,4.5,0,0,1,3.29,3.21,4,4,0,0,1-.1,2.25,4.58,4.58,0,0,1-1.41,2.05,4.07,4.07,0,0,1-5.05.3,4.59,4.59,0,0,1-1.64-1.87,3.93,3.93,0,0,1-.37-2.23,4.46,4.46,0,0,1,.7-1.83,4.41,4.41,0,0,1,2.19-1.74,3.25,3.25,0,0,1,.42-.13,1.48,1.48,0,0,1,.32-.05A.79.79,0,0,1,113.49,143.09Z" style="fill:#263238"></path><path d="M111.71,121.29s0-.19,0-.55,0-.91,0-1.62c0-.35,0-.75,0-1.19s-.06-.91-.1-1.43-.08-1.08-.13-1.67a6,6,0,0,0-.12-.92c-.06-.31-.12-.63-.17-1a32.33,32.33,0,0,0-3-9.3,33.67,33.67,0,0,0-7.84-10.25L99,92.2c-.49-.38-1-.73-1.51-1.1l-.77-.56a8.42,8.42,0,0,0-.8-.52l-1.69-1c-.28-.17-.57-.34-.86-.49l-.91-.42-1.84-.84c-.63-.26-1.3-.45-1.95-.69l-1-.34-.5-.16L86.64,86a30.58,30.58,0,0,0-4.22-.83c-.73-.08-1.46-.21-2.2-.26L78,84.83c-.38,0-.75,0-1.13,0l-1.14.08c-.76.07-1.53.1-2.3.2a35.49,35.49,0,0,0-4.6,1l-1.15.33-.58.16-.56.22-2.26.88c-.75.33-1.46.73-2.2,1.09-.36.2-.75.36-1.1.58L59.91,90a38,38,0,0,0-4.08,3L54,94.69l-.47.45-.43.48-.85,1-.86,1-.76,1.05-.77,1.07-.38.53c-.12.19-.22.38-.33.57l-1.34,2.29c-.36.81-.73,1.61-1.11,2.43A33.5,33.5,0,0,0,45,126.79l.72,2.57,1,2.47.24.61.3.59.59,1.17.59,1.16.7,1.1.69,1.09.35.55.39.51c.53.67,1.05,1.35,1.57,2a38.57,38.57,0,0,0,3.57,3.55l.94.82c.31.28.66.49,1,.74.67.48,1.32,1,2,1.42l2.1,1.22.52.31.55.25,1.08.5a36.74,36.74,0,0,0,4.4,1.67c.74.21,1.5.36,2.24.54l1.11.26c.37.08.75.11,1.12.16l2.23.29c.74.07,1.48.06,2.21.09a32.22,32.22,0,0,0,4.3-.16l.53,0,.52-.09,1-.18c.68-.13,1.37-.21,2-.38l2-.54,1-.27.92-.35,1.82-.71a6.79,6.79,0,0,0,.87-.39l.85-.43c.56-.29,1.12-.55,1.66-.85l1.55-1a33.89,33.89,0,0,0,9.33-8.91c.28-.39.56-.77.82-1.15s.46-.79.69-1.17.44-.76.66-1.13c.1-.19.22-.37.31-.55s.18-.38.26-.57l1-2.13c.29-.69.49-1.38.72-2,.11-.32.21-.63.32-.93a6.23,6.23,0,0,0,.26-.88l.39-1.63c.11-.51.24-1,.32-1.4s.11-.83.16-1.18c.1-.7.17-1.24.22-1.6l.09-.55s0,.19,0,.55-.11.9-.2,1.61c0,.35-.09.74-.14,1.18s-.2.9-.31,1.41-.24,1-.37,1.63a6.47,6.47,0,0,1-.26.9l-.32.93c-.22.64-.42,1.33-.71,2l-1,2.15-.26.57c-.09.19-.21.37-.31.55q-.33.56-.66,1.14c-.23.39-.45.78-.69,1.18s-.54.77-.82,1.16a33.8,33.8,0,0,1-9.35,9l-1.55,1c-.54.3-1.11.57-1.68.86l-.85.43a5.39,5.39,0,0,1-.88.4l-1.82.72-.94.35-1,.28-2,.55c-.67.17-1.36.25-2,.39l-1,.18c-.18,0-.35.07-.53.09l-.53,0a32.82,32.82,0,0,1-4.34.17c-.74,0-1.48,0-2.22-.08l-2.25-.29c-.37-.06-.75-.08-1.13-.16l-1.12-.26c-.75-.19-1.51-.33-2.26-.55a36.32,36.32,0,0,1-4.44-1.68l-1.09-.5a5.52,5.52,0,0,1-.55-.26l-.53-.3-2.12-1.23c-.69-.45-1.34-.95-2-1.43-.33-.25-.69-.47-1-.74l-.94-.83a39.32,39.32,0,0,1-3.61-3.58l-1.59-2-.39-.51-.36-.55-.69-1.11-.71-1.1-.59-1.18-.6-1.18-.3-.59L46.4,132c-.32-.83-.64-1.66-1-2.49l-.72-2.59a33.87,33.87,0,0,1,1.67-21.49c.38-.82.75-1.63,1.13-2.44s.89-1.55,1.34-2.31c.11-.2.22-.39.34-.58l.39-.54.77-1.07.77-1.06.87-1,.86-1c.14-.16.28-.33.43-.49l.47-.44,1.88-1.77a37.71,37.71,0,0,1,4.12-3l1.06-.67c.36-.22.74-.39,1.11-.58.74-.37,1.47-.77,2.22-1.1l2.28-.88.57-.22a5.54,5.54,0,0,1,.58-.17l1.16-.33a36.48,36.48,0,0,1,4.64-1c.78-.09,1.55-.12,2.32-.19l1.15-.08c.38,0,.76,0,1.14,0l2.26.06c.75,0,1.48.18,2.21.26a31.18,31.18,0,0,1,4.26.85l.52.12.5.17,1,.34c.66.23,1.33.43,2,.7l1.86.85.91.42.87.49,1.69,1a7.6,7.6,0,0,1,.81.54l.77.56c.52.37,1,.73,1.52,1.11l1.38,1.21a33.87,33.87,0,0,1,7.85,10.35,32.41,32.41,0,0,1,3,9.34c0,.34.11.66.16,1a6,6,0,0,1,.12.92c0,.59.08,1.15.12,1.67s.08,1,.08,1.44,0,.84,0,1.19c0,.71,0,1.25-.06,1.62S111.71,121.29,111.71,121.29Z" style="fill:#263238"></path><path d="M68.79,118.64a2.93,2.93,0,1,1-2.93-2.93A2.93,2.93,0,0,1,68.79,118.64Z" style="fill:#263238"></path><path d="M80.53,118.64a2.94,2.94,0,1,1-2.94-2.93A2.94,2.94,0,0,1,80.53,118.64Z" style="fill:#263238"></path><path d="M92.23,117.18a2.93,2.93,0,1,1-4-1.08A2.93,2.93,0,0,1,92.23,117.18Z" style="fill:#263238"></path></g><g id="freepik--character-2--inject-13"><rect x="482.71" y="407.98" width="131.79" height="10.58" transform="translate(135.34 961.88) rotate(-90)" style="fill:#455a64"></rect><rect x="511.42" y="335.71" width="128.08" height="20.48" style="fill:#455a64"></rect><rect x="459.88" y="407.98" width="131.79" height="10.58" transform="translate(112.51 939.05) rotate(-90)" style="fill:#455a64"></rect><rect x="529.8" y="407.98" width="131.79" height="10.58" transform="translate(182.42 1008.96) rotate(-90)" style="fill:#455a64"></rect><rect x="557.92" y="407.98" width="131.79" height="10.58" transform="translate(210.54 1037.08) rotate(-90)" style="fill:#455a64"></rect><path d="M617,356.19a102.25,102.25,0,0,1-.26-10.24,102.42,102.42,0,0,1,.26-10.24,98.94,98.94,0,0,1,.26,10.24A98.78,98.78,0,0,1,617,356.19Z" style="fill:#263238"></path><path d="M638.45,356.19c0,.15-28.43.26-63.51.26s-63.52-.11-63.52-.26,28.44-.26,63.52-.26S638.45,356.05,638.45,356.19Z" style="fill:#263238"></path><rect x="530.41" y="408.37" width="89.81" height="8.75" style="fill:#455a64"></rect><path d="M415.35,208.34a6.28,6.28,0,0,0-1.13,10.79h0l-13.1,2.58.21,1.14,3.09,16.6h0a6.28,6.28,0,1,1,1,5.44h0l2.77,14.9h0l36.95-6.87h0L438.28,216l-.28-1.5-14.77,3h0a6.28,6.28,0,0,0-7.88-9.12Z" style="fill:#9868F0"></path><path d="M513.29,182.76c-.51.68-18.89,33.48-18.89,33.48l-41.23,9.12,3.37,18.79s45.46-4.88,51.87-9.92,21.37-35.69,21.37-35.69Z" style="fill:#936760"></path><path d="M453.17,225.36l-12.58,1.32c-.56.06-12.15,6.38-12.15,6.38s-.9,1.23,2.88,1.09a41.49,41.49,0,0,0,9.28-2l3.72,16.37L457.49,244l2.1-15.14Z" style="fill:#936760"></path><path d="M569.05,277.25s-80.5-.34-86.88,0c-11.35.61-19,13.28-20.47,19.85S425,404.84,425,404.84l27.33,17.68L489,339.77l18.46-32.1,100.4,17.54Z" style="fill:#936760"></path><path d="M507,304.7s-14.86,0-22.89,11.89c-4.71,7-3.06,19.48-3.15,28.9-.13,12.84,3.21,112.41,3.21,112.41,9.47,6.73,20.05,7.5,31.61,3l8.18-110.22-2.11-16.44,54.91,1.21s9.78-18.3-3.81-32.82C571.15,300.75,507,304.7,507,304.7Z" style="fill:#936760"></path><path d="M484.13,456.86l0,2s-34.46,13.44-34.89,19.95l68.16.32-.82-22.68C506.39,461.13,495.79,461.6,484.13,456.86Z" style="fill:#9868F0"></path><path d="M517.37,479.16l-.2-5.45-65.25,1.68s-3,1.31-2.71,3.45Z" style="fill:#e0e0e0"></path><path d="M426.32,400.63l-.77,1.87s-37-.21-39.78,5.68L449,433.61l7.6-21.38C445.45,412.8,435.41,409.33,426.32,400.63Z" style="fill:#9868F0"></path><path d="M449,433.61l1.83-5.14L389.55,406s-3.3.09-3.78,2.2Z" style="fill:#e0e0e0"></path><path d="M423,410.26c.08,0,.4-.36.67-1.14a6.55,6.55,0,0,0,.23-3.19,6.64,6.64,0,0,0-1.25-2.94c-.52-.65-.95-.92-1-.86s1.19,1.61,1.55,3.92S422.79,410.18,423,410.26Z" style="fill:#263238"></path><path d="M426.61,410.88c.16.09,1-1.87.6-4.38s-1.89-4.07-2-3.93.92,1.75,1.3,4.06S426.39,410.82,426.61,410.88Z" style="fill:#263238"></path><path d="M417.49,409.8c.14.14,1.35-1.21,1.6-3.33s-.55-3.73-.72-3.63.26,1.62,0,3.54S417.31,409.68,417.49,409.8Z" style="fill:#263238"></path><path d="M421.26,402.67c0,.08.95-.4,1.88-1.69a12.57,12.57,0,0,0,1.33-2.42c.2-.47.4-1,.6-1.5a4.73,4.73,0,0,0,.27-.87,1.31,1.31,0,0,0-.31-1.12,1,1,0,0,0-1.23-.15,2.29,2.29,0,0,0-.74.66,8,8,0,0,0-.86,1.43,8.12,8.12,0,0,0-.76,2.68,4.3,4.3,0,0,0,.27,2.52c.12,0,0-1,.24-2.44a9,9,0,0,1,.85-2.46,7.61,7.61,0,0,1,.83-1.29c.29-.41.75-.65.88-.44s.1.71-.11,1.24-.37,1-.56,1.48a14.94,14.94,0,0,1-1.13,2.39C421.94,402,421.18,402.58,421.26,402.67Z" style="fill:#263238"></path><path d="M420.9,402.31s.05.15.24.36l.15.16,0-.24a8.51,8.51,0,0,0-.17-2.87,10.89,10.89,0,0,0-1.32-3.26,2.13,2.13,0,0,0-.49-.58,1.1,1.1,0,0,0-.93-.23,1,1,0,0,0-.7,1,3.19,3.19,0,0,0,.13.87,8.74,8.74,0,0,0,.5,1.47,9.06,9.06,0,0,0,1.39,2.2,4.36,4.36,0,0,0,1.86,1.48c.08-.1-.63-.66-1.45-1.8A10.13,10.13,0,0,1,419,398.7a11,11,0,0,1-.42-1.37c-.15-.5-.12-1,0-1,.4-.14.89.92,1.23,1.53a12.16,12.16,0,0,1,.77,2,16.37,16.37,0,0,1,.51,2.71l.19-.08C421.05,402.34,420.92,402.28,420.9,402.31Z" style="fill:#263238"></path><path d="M484.71,466.65c.09,0,.16-.52,0-1.32a6.57,6.57,0,0,0-1.47-2.84,6.66,6.66,0,0,0-2.61-1.85c-.78-.29-1.3-.29-1.31-.2s1.85.75,3.37,2.53S484.5,466.69,484.71,466.65Z" style="fill:#263238"></path><path d="M488.12,465.29c.19,0-.09-2.14-1.78-4.05s-3.74-2.48-3.77-2.29,1.7,1,3.22,2.77S487.91,465.35,488.12,465.29Z" style="fill:#263238"></path><path d="M479.79,469.14c.19,0,.51-1.74-.38-3.68s-2.43-2.89-2.52-2.72,1.07,1.25,1.85,3S479.57,469.13,479.79,469.14Z" style="fill:#263238"></path><path d="M479.27,461.09a4.11,4.11,0,0,0,.71-2.43,13.35,13.35,0,0,0-.13-2.75c-.07-.52-.17-1.05-.27-1.59a4.5,4.5,0,0,0-.23-.89,1.27,1.27,0,0,0-.85-.79,1,1,0,0,0-1.13.51,2.27,2.27,0,0,0-.28,1,7.65,7.65,0,0,0,0,1.66,8.58,8.58,0,0,0,.76,2.69c.71,1.43,1.49,2.06,1.55,2s-.53-.81-1.07-2.21a8.62,8.62,0,0,1-.54-4.07c0-.5.31-.94.52-.83s.46.55.56,1.11.2,1,.3,1.55a16.3,16.3,0,0,1,.29,2.63C479.49,460.15,479.16,461.05,479.27,461.09Z" style="fill:#263238"></path><path d="M478.77,461s.12.1.4.18l.21.06-.1-.23a8.48,8.48,0,0,0-1.64-2.35,10.76,10.76,0,0,0-1.73-1.45,12.73,12.73,0,0,0-1.1-.64,2.09,2.09,0,0,0-.73-.24,1.09,1.09,0,0,0-.9.29,1,1,0,0,0-.1,1.19,3.71,3.71,0,0,0,.57.68,9,9,0,0,0,1.2,1,8.79,8.79,0,0,0,2.33,1.15,4.33,4.33,0,0,0,2.36.28c0-.12-.88-.22-2.18-.77a10.25,10.25,0,0,1-2.12-1.21,9.42,9.42,0,0,1-1.08-.95c-.39-.34-.62-.78-.47-.84.27-.33,1.24.31,1.84.66a11.42,11.42,0,0,1,1.7,1.28,17,17,0,0,1,1.86,2.05l.11-.17C478.92,460.92,478.78,460.93,478.77,461Z" style="fill:#263238"></path><path d="M537.51,68.89a21.48,21.48,0,0,1,10.64-12.71c5.56-2.83,12.17-3.07,18.25-1.67s11.69,4.32,17,7.6c3,1.84,5.94,3.85,8,6.65,3.82,5.11,7.52,13.43,7.72,19.81.16,5.16-2.18,18-4.49,22.61-.82,1.65-2.75,3.1-5.07,4.32a43.87,43.87,0,0,1-9.68,12.08q-1.65-5.23-3.29-10.48Z" style="fill:#263238"></path><path d="M540.66,62.62l10.2-1.53c-5.92,13.06-8.29,43.24-11.86,57.13-3.59-5.53-11.81-22.32-11.16-28.89S528.63,61.15,540.66,62.62Z" style="fill:#263238"></path><path d="M588.17,86a17.37,17.37,0,0,0-12.59-16.34L552.37,63c-10.08-1.38-17.18,10.86-18.13,21-1.06,11.25-1.85,23.12-.77,31.57,2.16,17,15,19.54,15,19.54s-.22,8-.36,13L552,170.22l30.6-26.12,5.67-57.9C588.24,85.91,588.18,86.38,588.17,86Z" style="fill:#936760"></path><path d="M537.18,96.92a2.17,2.17,0,0,0,2,2.25,2.07,2.07,0,0,0,2.29-1.88,2.17,2.17,0,0,0-2-2.26A2.07,2.07,0,0,0,537.18,96.92Z" style="fill:#263238"></path><path d="M536.59,90.7c.26.29,1.94-.88,4.27-.8s4,1.3,4.27,1c.13-.12-.13-.64-.86-1.21a6,6,0,0,0-3.4-1.16,5.75,5.75,0,0,0-3.42,1C536.72,90.06,536.46,90.57,536.59,90.7Z" style="fill:#263238"></path><path d="M557.61,97a2.17,2.17,0,0,0,2,2.25,2.08,2.08,0,0,0,2.3-1.89,2.17,2.17,0,0,0-2-2.25A2.07,2.07,0,0,0,557.61,97Z" style="fill:#263238"></path><path d="M558.75,91.33c.26.29,1.94-.87,4.27-.8s4,1.3,4.27,1c.13-.12-.13-.64-.86-1.2a5.88,5.88,0,0,0-3.4-1.17,5.68,5.68,0,0,0-3.42,1C558.88,90.7,558.62,91.2,558.75,91.33Z" style="fill:#263238"></path><path d="M550.93,109.45a15.39,15.39,0,0,0-3.77-.8c-.59-.08-1.15-.22-1.24-.63a3,3,0,0,1,.45-1.75l1.9-4.48c2.65-6.39,4.58-11.64,4.33-11.75s-2.62,5-5.26,11.37l-1.83,4.51a3.42,3.42,0,0,0-.38,2.33,1.48,1.48,0,0,0,1,.9,3.73,3.73,0,0,0,1,.17A15.56,15.56,0,0,0,550.93,109.45Z" style="fill:#263238"></path><path d="M571.12,129.74s-5.83,11.45-22.7,9.35l.1-4A42.65,42.65,0,0,0,571.12,129.74Z" style="fill:#6f4c47"></path><path d="M559.72,82.92c.21.64,2.55.41,5.28.83s4.92,1.22,5.3.67c.17-.27-.2-.88-1.07-1.52a9.29,9.29,0,0,0-8.06-1.14C560.15,82.13,559.63,82.62,559.72,82.92Z" style="fill:#263238"></path><path d="M537.55,83.58c.4.54,2,0,4,.08s3.55.46,4-.08c.17-.26-.07-.8-.77-1.33a5.74,5.74,0,0,0-6.37,0C537.62,82.78,537.38,83.32,537.55,83.58Z" style="fill:#263238"></path><path d="M539.27,68.69a7.46,7.46,0,0,1,6.69-4,14.48,14.48,0,0,1,7.74,2.49c9.9,6.11,14.67,20.32,24.45,26.62,2.41,1.55,5.63.29,7.66,2.31s3.28,5.19,2.06,7.78a23.6,23.6,0,0,0,3.61-5.74,8,8,0,0,0-.09-6.6c-.82-1.51-2.3-2.7-2.67-4.38-.33-1.48.3-3,.28-4.52a10,10,0,0,0-1.43-4.35c-3.7-7-8.88-13.4-15.68-17.47a28.62,28.62,0,0,0-14.73-4.26,21.88,21.88,0,0,0-14.27,5.2c-2.29,2-4.69,4.09-3.62,6.94" style="fill:#263238"></path><path d="M585.5,98.18c.19-.48,9.1-3.41,9,6-.14,9.12-9.28,7.06-9.29,6.8S585.5,98.18,585.5,98.18Z" style="fill:#936760"></path><path d="M588,107.54s.15.12.42.24a1.54,1.54,0,0,0,1.18,0c1-.33,1.81-1.85,1.89-3.49a5.24,5.24,0,0,0-.4-2.28,1.86,1.86,0,0,0-1.17-1.24.81.81,0,0,0-1,.42c-.12.25-.07.43-.12.45s-.19-.16-.11-.53a1,1,0,0,1,.37-.57,1.17,1.17,0,0,1,.88-.21,2.23,2.23,0,0,1,1.63,1.44,5.3,5.3,0,0,1,.5,2.55c-.09,1.84-1.06,3.54-2.39,3.89a1.67,1.67,0,0,1-1.44-.27C588.05,107.76,588,107.56,588,107.54Z" style="fill:#6f4c47"></path><path d="M589.26,93.6a4.08,4.08,0,0,1-.54-.32c-.34-.23-.87-.54-1.5-1a30.86,30.86,0,0,1-4.79-4.61,88.22,88.22,0,0,1-5.79-8,71.46,71.46,0,0,0-7.25-9.58,28.78,28.78,0,0,0-4.74-4,23.48,23.48,0,0,0-5.17-2.52,25.73,25.73,0,0,0-9.61-1.46,24.66,24.66,0,0,0-6.5,1.08,17.12,17.12,0,0,0-1.71.58,4.73,4.73,0,0,1-.6.19,3.75,3.75,0,0,1,.57-.27,15.46,15.46,0,0,1,1.69-.66,23.76,23.76,0,0,1,6.53-1.22,26,26,0,0,1,9.76,1.39,24,24,0,0,1,5.26,2.55,28.33,28.33,0,0,1,4.82,4A69.81,69.81,0,0,1,577,79.45a92.42,92.42,0,0,0,5.7,8,33.34,33.34,0,0,0,4.66,4.68c.61.49,1.12.82,1.44,1.07A3,3,0,0,1,589.26,93.6Z" style="fill:#455a64"></path><path d="M589,109.18a1.8,1.8,0,1,1-1.41,2.38,1.88,1.88,0,0,1,1-2.26" style="fill:#fff"></path><path d="M588.6,109.3a2.47,2.47,0,0,0-.86,1.2,1.52,1.52,0,0,0,.32,1.44,1.59,1.59,0,0,0,2.82-.81,1.59,1.59,0,0,0-.49-1.39,2.43,2.43,0,0,0-1.37-.56s.15-.09.43-.09a1.85,1.85,0,0,1,1.13.43,1.83,1.83,0,0,1,.68,1.67,2,2,0,0,1-1.41,1.69,2.06,2.06,0,0,1-2.09-.69,1.82,1.82,0,0,1-.3-1.77,1.87,1.87,0,0,1,.72-1C588.43,109.3,588.59,109.28,588.6,109.3Z" style="fill:#263238"></path><path d="M586.9,96.11c.07,2.49.11,5.12-1.11,7.3s-4.15,3.6-6.28,2.3c-1.73-1.06-2.2-3.33-2.44-5.35-.7-5.83-.92-11.7-1.67-17.52Z" style="fill:#263238"></path><path d="M541.64,64.42s.81-.13,2.27-.13a15.54,15.54,0,0,1,6,1.27,20.73,20.73,0,0,1,3.72,2,41.71,41.71,0,0,1,3.81,3.09,47.09,47.09,0,0,1,7.39,8.44c1.11,1.66,2.08,3.35,3.15,4.93a23.29,23.29,0,0,0,3.53,4.21,40.78,40.78,0,0,0,7.55,5.37c2.3,1.3,4.22,2.22,5.55,2.85l1.54.71a1.9,1.9,0,0,0,.55.21,2.87,2.87,0,0,0-.51-.3l-1.49-.8c-1.3-.68-3.2-1.65-5.46-3a42,42,0,0,1-7.4-5.4,22.81,22.81,0,0,1-3.44-4.15c-1-1.56-2-3.26-3.15-4.94a45.5,45.5,0,0,0-7.5-8.5,42.6,42.6,0,0,0-3.88-3.09,19.82,19.82,0,0,0-3.83-2,15,15,0,0,0-6.13-1.14,10.78,10.78,0,0,0-1.7.19A2.09,2.09,0,0,0,541.64,64.42Z" style="fill:#455a64"></path><path d="M587.31,90.49a3.47,3.47,0,0,0,.79.57l2.27,1.42.76.47a2.48,2.48,0,0,0,1,.36,1,1,0,0,0,.62-.13.78.78,0,0,0,.35-.59,2,2,0,0,0-.39-1.17c-.79-1.33-1.65-2.8-2.56-4.36l-.37.33a9.61,9.61,0,0,0,6.14,2,2.73,2.73,0,0,0,.83-.12,1.14,1.14,0,0,0,.72-.6,1,1,0,0,0-.13-.92,3.77,3.77,0,0,0-.5-.59,18.78,18.78,0,0,1-3-4A31.07,31.07,0,0,1,592,78.93a4.46,4.46,0,0,0,.25,1.24,17.27,17.27,0,0,0,1.28,3.19,18.37,18.37,0,0,0,3,4.15c.33.33.66.71.52,1s-.64.41-1.12.4a9.1,9.1,0,0,1-3.07-.47A8.87,8.87,0,0,1,590.08,87L589,86.17l.69,1.15,2.61,4.33a1.74,1.74,0,0,1,.36.9c0,.26-.24.4-.53.37a4.71,4.71,0,0,1-1.62-.72l-2.34-1.29A5.67,5.67,0,0,0,587.31,90.49Z" style="fill:#455a64"></path><path d="M559.68,114a3.05,3.05,0,0,0-3.08-2.4,3.17,3.17,0,0,0-2.49,1.67,3.92,3.92,0,0,0-.23,3l0,.22a3.48,3.48,0,0,0,3.88,1A3.25,3.25,0,0,0,559.68,114Z" style="fill:#6f4c47"></path><path d="M552.23,116.53c0-.35,2.36-.17,4.19-2s1.77-4.42,2.1-4.41c.15,0,.42.59.36,1.66a5.83,5.83,0,0,1-1.62,3.68,5.1,5.1,0,0,1-3.5,1.58C552.77,117,552.2,116.69,552.23,116.53Z" style="fill:#263238"></path><path d="M599.08,142.08l-16.2-1.36S574,152.5,561.8,151.59s-13.48-9.07-13.48-9.07a56.84,56.84,0,0,0-27.14,15.55l-.27.34h0l-20.81,40.8,23.95,19.55,2.33-3.78L532,243.21l-7.34,10.12,9.1,9a66,66,0,0,0,46.27,19l38.43.06Z" style="fill:#9868F0"></path><path d="M596.52,142s7.21,0,11.46,2.36c11.56,6.53,27.13,43.75,27.13,43.75l-31,17.47S593,181.79,589.32,170.36c-.86-2.68,1.1-16.08,1.1-16S596.52,142.23,596.52,142Z" style="fill:#9868F0"></path><path d="M522.61,174.68a3,3,0,0,1,.06.68c0,.5.05,1.15.08,1.95,0,1.7.16,4.15.32,7.18.32,6.06,1,14.41,2.29,23.57s3,17.38,4.38,23.29c.69,3,1.27,5.34,1.69,7l.47,1.9a3.18,3.18,0,0,1,.13.67,4,4,0,0,1-.23-.65l-.56-1.87c-.49-1.63-1.13-4-1.86-6.95a233.77,233.77,0,0,1-4.53-23.29,237.14,237.14,0,0,1-2.15-23.63c-.11-3-.16-5.5-.15-7.2,0-.8,0-1.45,0-1.95A3.22,3.22,0,0,1,522.61,174.68Z" style="fill:#263238"></path><g style="opacity:0.30000000000000004"><path d="M610,237.05a34.22,34.22,0,0,0-7.42-6.18l-57.71-39.39-2.8,2.34c-.24,4.54,3.39,8.27,6.8,11.29a334.37,334.37,0,0,0,60.64,42.68,2.83,2.83,0,0,0,1.55.48c1-.1,2.22-1.79,2.4-2.8C614.06,242.29,612.09,239.56,610,237.05Z"></path></g><path d="M635.11,188.07a5.61,5.61,0,0,1-.61.4l-1.78,1.06-6.6,3.81-21.93,12.42-.25.15-.11-.27-.17-.39-10.11-23.39c-1.25-3-2.28-5.38-3-7.12-.33-.8-.59-1.45-.79-1.94a5.33,5.33,0,0,1-.25-.69,3.37,3.37,0,0,1,.34.65c.23.48.52,1.11.89,1.9l3.16,7.05c2.64,6,6.25,14.25,10.25,23.34l.16.38-.36-.12,22-12.29,6.68-3.67,1.83-1A3.16,3.16,0,0,1,635.11,188.07Z" style="fill:#263238"></path><path d="M423.14,381.53s34.34-110.95,40.33-119.74,16.78-19.17,37.94-14.37,80.68,24.76,94.26,28,20.38,4.06,20.38,4.06,7.71,9.38,7.71,31c0,25.84-26.76,25.48-39.14,26.28s-49,1-49,1l-12.83,99.78s-12.54,4.79-20.93-3.59-5.19-17.58-17.57-18.78-29.95-2-34.75-23.16S423.14,381.53,423.14,381.53Z" style="fill:#263238"></path><path d="M503.43,288.53a1.21,1.21,0,0,1-.06.31c-.07.22-.15.52-.25.88-.23.81-.56,1.95-1,3.39-.88,3-2.15,7.22-3.71,12.45-3.14,10.53-7.48,25-12.26,41s-9,30.57-12,41.11c-1.49,5.25-2.69,9.51-3.54,12.49l-1,3.4c-.1.37-.19.66-.26.88a1.61,1.61,0,0,1-.1.3,1.43,1.43,0,0,1,.05-.31c.06-.23.13-.52.21-.89l.87-3.43c.75-3,1.92-7.25,3.37-12.54,2.93-10.57,7.13-25.12,11.9-41.16s9.18-30.53,12.41-41c1.63-5.21,2.95-9.44,3.87-12.4l1.08-3.36.3-.87A1.21,1.21,0,0,1,503.43,288.53Z" style="fill:#455a64"></path><path d="M549.89,277.72a2.75,2.75,0,0,1-.49,0l-1.42.05c-1.23,0-3,.11-5.19.26a90.36,90.36,0,0,0-16.89,2.85,66.38,66.38,0,0,0-15.83,6.43l-1.35.79-1.17.76c-.73.48-1.36.89-1.84,1.27l-1.15.83a2.52,2.52,0,0,1-.42.26s.11-.13.35-.35l1.1-.9a22,22,0,0,1,1.8-1.35l1.15-.8,1.34-.82a61.53,61.53,0,0,1,15.89-6.62,81.83,81.83,0,0,1,17-2.72c2.2-.1,4-.14,5.22-.09l1.42,0A1.61,1.61,0,0,1,549.89,277.72Z" style="fill:#455a64"></path><path d="M504.14,422.73c-.15,0,.34-22.85,1.07-51s1.46-51,1.6-51-.34,22.86-1.07,51S504.28,422.74,504.14,422.73Z" style="fill:#455a64"></path><path d="M501,266.86s.22.21.54.65a17.83,17.83,0,0,1,1.19,1.94,24.38,24.38,0,0,1,2.45,7.12,24.1,24.1,0,0,1,.14,7.53,18.08,18.08,0,0,1-.45,2.24c-.15.52-.24.8-.28.79s.18-1.18.37-3.07a27.22,27.22,0,0,0-2.56-14.44C501.61,267.9,501,266.91,501,266.86Z" style="fill:#455a64"></path><path d="M449.14,356.13a83,83,0,0,1-1.92-13.05,40.94,40.94,0,0,1,1.22,6.49A42.11,42.11,0,0,1,449.14,356.13Z" style="fill:#fff"></path><path d="M472.53,376.31a8.09,8.09,0,0,1-1.83,1.06c-1.16.59-2.78,1.38-4.58,2.22s-3.44,1.57-4.64,2.08a9,9,0,0,1-2,.73,8.09,8.09,0,0,1,1.83-1.06c1.16-.6,2.77-1.38,4.57-2.22s3.44-1.58,4.64-2.08A8.8,8.8,0,0,1,472.53,376.31Z" style="fill:#fff"></path><path d="M474.33,346.51a37.27,37.27,0,0,1-2.6-8.44,19.46,19.46,0,0,1,1.55,4.15A18.63,18.63,0,0,1,474.33,346.51Z" style="fill:#fff"></path><path d="M463.11,309a17.17,17.17,0,0,1-5.16,1.87,17.55,17.55,0,0,1-5.45.68c0-.15,2.41-.48,5.33-1.18S463.06,308.89,463.11,309Z" style="fill:#fff"></path><path d="M489.38,311.49a26,26,0,0,1-1.66-4.82,26.62,26.62,0,0,1-1.16-5,24.3,24.3,0,0,1,1.66,4.83A24.83,24.83,0,0,1,489.38,311.49Z" style="fill:#fff"></path><path d="M475.84,283a25.33,25.33,0,0,1,.2-7.24,25.33,25.33,0,0,1-.2,7.24Z" style="fill:#fff"></path><path d="M483,257.67a20.5,20.5,0,0,1-4.5.67,19.93,19.93,0,0,1-4.54.15,20.5,20.5,0,0,1,4.5-.67A19.93,19.93,0,0,1,483,257.67Z" style="fill:#fff"></path><path d="M515.12,269.94a25.88,25.88,0,0,1-1.34-7.25,13.4,13.4,0,0,1,.93,3.58A13.68,13.68,0,0,1,515.12,269.94Z" style="fill:#fff"></path><path d="M545.58,266a31.8,31.8,0,0,1-7.09,3.71,30.2,30.2,0,0,1,7.09-3.71Z" style="fill:#fff"></path><path d="M526.51,304.27a47,47,0,0,1-5.75-4.16,50.31,50.31,0,0,1-5.44-4.57,47.46,47.46,0,0,1,5.76,4.16A50.75,50.75,0,0,1,526.51,304.27Z" style="fill:#fff"></path><path d="M552.25,291.73a27.46,27.46,0,0,1-4,3.39,26.76,26.76,0,0,1-4.3,3,50.55,50.55,0,0,1,8.29-6.37Z" style="fill:#fff"></path><path d="M591.93,289.65a66.72,66.72,0,0,1-6.8-9.47,65.23,65.23,0,0,1,6.8,9.47Z" style="fill:#fff"></path><path d="M611.72,307.58a11.77,11.77,0,0,1-1.82,1.72c-1.18,1-2.83,2.35-4.7,3.78s-3.6,2.69-4.88,3.56a11.16,11.16,0,0,1-2.13,1.31,13.15,13.15,0,0,1,1.91-1.61l4.78-3.67,4.78-3.66A12.29,12.29,0,0,1,611.72,307.58Z" style="fill:#fff"></path><path d="M572.31,323.39a40.21,40.21,0,0,1,.53-6.57,41.77,41.77,0,0,1,1-6.5,40.06,40.06,0,0,1-.53,6.56A42.33,42.33,0,0,1,572.31,323.39Z" style="fill:#fff"></path><path d="M550.56,331.22a8,8,0,0,1-2.06-.81,47.63,47.63,0,0,1-4.66-2.59,46.18,46.18,0,0,1-4.34-3.1,8.61,8.61,0,0,1-1.62-1.51c.1-.12,2.74,2,6.24,4.17S550.63,331.08,550.56,331.22Z" style="fill:#fff"></path><path d="M517.09,339.14c-.11-.1,1.83-2.21,3.94-5s3.62-5.23,3.75-5.15a23.29,23.29,0,0,1-3.33,5.46A23,23,0,0,1,517.09,339.14Z" style="fill:#fff"></path><path d="M520.87,376.6a41.69,41.69,0,0,1-4-5.18,40.56,40.56,0,0,1-3.6-5.48,42.64,42.64,0,0,1,4,5.18A40.56,40.56,0,0,1,520.87,376.6Z" style="fill:#fff"></path><path d="M498.48,358.58a52.68,52.68,0,0,1-6.41-8.46,28.43,28.43,0,0,1,3.41,4.07A27.76,27.76,0,0,1,498.48,358.58Z" style="fill:#fff"></path><path d="M498.55,381.14a31.52,31.52,0,0,1-5.14,2.32,31.06,31.06,0,0,1-5.34,1.84,31.52,31.52,0,0,1,5.14-2.32A31.06,31.06,0,0,1,498.55,381.14Z" style="fill:#fff"></path><path d="M493.34,408.36a30.73,30.73,0,0,1-3-4.66,29.92,29.92,0,0,1-2.54-4.93,59.65,59.65,0,0,1,5.53,9.59Z" style="fill:#fff"></path><path d="M517.93,421.76a56.28,56.28,0,0,1-7,8.06,27.12,27.12,0,0,1,3.32-4.2A26.65,26.65,0,0,1,517.93,421.76Z" style="fill:#fff"></path><path d="M607.64,203.53l7,16.1-33.26-17.52L571,216.59S608.89,246,622.7,249.22c11.59,2.67,20.25-4.63,20.86-14.88.54-9-12.67-43.9-12.67-43.9Z" style="fill:#936760"></path><path d="M625.69,226.08c-.1.12-2.54-1.83-5.83-3.81s-6.15-3.24-6.08-3.39a7.2,7.2,0,0,1,1.94.67,35.46,35.46,0,0,1,4.41,2.27,37,37,0,0,1,4.07,2.85A6.81,6.81,0,0,1,625.69,226.08Z" style="fill:#6f4c47"></path><path d="M580.51,200.83a16.52,16.52,0,0,0-.72-7.11c-1.26-4-6-9.34-5.44-12s-2.68-2.32-3.85.77c-.75,2,.06,8.82.06,8.82s-4.92-1.53-6.77-4.91-10-12.39-11.92-11.65c-2.16.84.12,3,.86,4.27.55,1,5.17,8.33,5.17,8.33S545,178.83,543,178.45c-2.22-.42-1.34,2.3-.53,2.84.51.34-2.07.69-1.38,3.15.47,1.68,5.15,6.15,6.62,7.08l3,1.91-9.89-4.69s-2.51.49-.74,2.62c.79.95,26.5,22.2,28.61,23.67,3.65,2.52,9,5.93,9,5.93l9.65-15.63Z" style="fill:#936760"></path></g><g id="freepik--character-1--inject-13"><path d="M272.62,240a6.27,6.27,0,0,0-3.26-10.35h0l11.3-7.6h0l-8.44-12.54h0a6.28,6.28,0,1,1-3.08-4.59h0l-9.46-14h0l-31.18,21h0l21,31.18h0l12.28-8.26h0A6.28,6.28,0,0,0,272.62,240Z" style="fill:#e0e0e0"></path><path d="M272.62,240a5.23,5.23,0,0,1-.78.75,6.11,6.11,0,0,1-2.85,1.29,6.33,6.33,0,0,1-4.87-1.15,6.33,6.33,0,0,1-2.5-6.14l.22.14-12.25,8.3-.27-.06L228.3,212l.07-.35,25.55-17.2c1.89-1.27,3.76-2.54,5.62-3.78l.36.07,9.45,14.05-.34.36a6,6,0,0,0-9,5.54,5.94,5.94,0,0,0,1.55,3.73,6,6,0,0,0,9.88-1.3,6.16,6.16,0,0,0,.6-3.57l.39-.15c3.06,4.58,5.88,8.79,8.41,12.56l-.05.25-11.33,7.56,0-.23a6.36,6.36,0,0,1,4.32,3.47,6.25,6.25,0,0,1-.53,6.36,3.84,3.84,0,0,1-.56.64s.19-.22.5-.68a6.36,6.36,0,0,0,.95-2.29,6.2,6.2,0,0,0-4.74-7.25l0-.23,11.27-7.64-.05.24-8.46-12.52.38-.15a6.56,6.56,0,0,1-.63,3.83,6.42,6.42,0,0,1-2.82,2.85,6.52,6.52,0,0,1-4.09.63,6.31,6.31,0,0,1-3.71-2.06A6.52,6.52,0,0,1,264.65,204a6.58,6.58,0,0,1,4.61.73l-.33.36-9.46-14,.36.07-5.62,3.78-25.57,17.18.07-.34L249.64,243l-.26,0,12.3-8.22.22.14a6.2,6.2,0,0,0,9.89,5.9C272.35,240.3,272.6,240,272.62,240Z" style="fill:#263238"></path><path d="M183.67,153.82a34.57,34.57,0,0,0-13.1-21.73l.71-.4c-6.61-3-15.32.3-18.33,6.89-1.24,2.7-1.58,5.71-2.3,8.59s-2,5.84-4.43,7.51c-1.31.9-2.87,1.35-4.22,2.17s-2.59,2.19-2.49,3.77c.12,2,2.27,3.3,4.25,3.72s4.15.42,5.85,1.51a6.35,6.35,0,1,0,7.3,10.38c-1.47,3.24.18,7.36,3.2,9.24a11,11,0,0,0,10.25.24,19.9,19.9,0,0,0,7.8-7.11A34.54,34.54,0,0,0,183.67,153.82Z" style="fill:#263238"></path><path d="M230.43,139.78c-.2-2.44-2.32-4.37-4.65-5.13a18.87,18.87,0,0,0-7.27-.41c1.09-3.07,2.21-6.25,2-9.5s-2-6.65-5.12-7.65c-2.67-.86-5.59.2-8,1.64s-4.65,3.26-7.32,4.13c-6.94,2.27-14.31-2.53-21.59-2-7.48.56-14.66,8.18-14.5,15.68,11.39,6,22.9,12.06,32.69,20.42,5.3,4.52,10.91,10,17.87,9.76a12.08,12.08,0,0,0,9.4-19.06C227.12,145.94,230.74,143.38,230.43,139.78Z" style="fill:#263238"></path><path d="M216.53,155c.43-9.72-8.93-20.49-18.67-20.51L166,137l-.45,5.21-5,64.54h0s.44,21,18.07,21.75c15.85.63,16.78-16.08,16.78-16.08l.83-12.19s12.76.86,17.06-15C215.41,177.42,216,165.77,216.53,155Z" style="fill:#ffbe9d"></path><path d="M210.78,168.85a2.07,2.07,0,0,1-2.21,1.87,2,2,0,0,1-1.93-2.09,2.08,2.08,0,0,1,2.21-1.87A2,2,0,0,1,210.78,168.85Z" style="fill:#263238"></path><path d="M212.76,163.22c-.28.24-1.72-1.08-3.94-1.32s-4,.7-4.19.41.21-.59,1-1a5.64,5.64,0,0,1,3.38-.66A5.5,5.5,0,0,1,212.1,162C212.72,162.6,212.9,163.12,212.76,163.22Z" style="fill:#263238"></path><path d="M192,166.87a2.07,2.07,0,0,1-2.21,1.87,2,2,0,0,1-1.93-2.09,2.08,2.08,0,0,1,2.22-1.87A2,2,0,0,1,192,166.87Z" style="fill:#263238"></path><path d="M192.28,161.36c-.28.24-1.72-1.08-3.94-1.32s-4,.7-4.19.41c-.1-.14.21-.59,1-1a5.64,5.64,0,0,1,3.38-.66,5.5,5.5,0,0,1,3.11,1.39C192.24,160.74,192.42,161.26,192.28,161.36Z" style="fill:#263238"></path><path d="M197.22,178.22a17.38,17.38,0,0,1,3.68-.19c.57,0,1.12,0,1.25-.35s0-.87-.21-1.46c-.4-1.22-.82-2.49-1.25-3.83s-2.71-9.22-2.66-9.94c.25-.06,1.86,4.31,3.59,9.75.41,1.34.81,2.62,1.18,3.85a2.41,2.41,0,0,1,.08,1.91,1.46,1.46,0,0,1-1,.61,4.62,4.62,0,0,1-1,0A16.91,16.91,0,0,1,197.22,178.22Z" style="fill:#263238"></path><path d="M196.31,200.36a41.2,41.2,0,0,1-20.94-8.08s4.3,11.83,20.57,12.07Z" style="fill:#eb996e"></path><path d="M190.54,177.7c.36,0,.11,2.43,2,4.36S197,184,197,184.35c0,.15-.62.41-1.71.32a6,6,0,0,1-3.73-1.77,5.3,5.3,0,0,1-1.52-3.65C190,178.24,190.38,177.67,190.54,177.7Z" style="fill:#263238"></path><path d="M192.35,153.87c-.33.66-2.19-.06-4.52-.15s-4.33.36-4.5-.32c-.08-.33.37-.92,1.25-1.45a6.44,6.44,0,0,1,3.55-.86,5.84,5.84,0,0,1,3.32,1.22C192.19,152.93,192.49,153.56,192.35,153.87Z" style="fill:#263238"></path><path d="M213.66,155.6c-.43.58-2-.1-4-.19s-3.6.28-4-.36c-.15-.31.13-.91.87-1.45a5,5,0,0,1,3.26-.87A5.06,5.06,0,0,1,213,154C213.65,154.68,213.85,155.31,213.66,155.6Z" style="fill:#263238"></path><path d="M216.12,145.69c-2.3-5.82-7.41-10.26-13.21-12.62s-12.24-2.77-18.47-2.15a115.83,115.83,0,0,0-18.35,3.86c-1.46.39-3.07.88-3.88,2.16a6.13,6.13,0,0,0-.69,3q-.78,13-1.57,26l1.71,5.56c2.79.35,5.39-1.42,7.45-3.32a38.71,38.71,0,0,0,12.26-25.95,12.84,12.84,0,0,1,1.1,3.91,4.29,4.29,0,0,0,2.21,3.25c2.11.84,4.23-1.42,4.83-3.62s.5-4.67,1.82-6.52A26,26,0,0,0,199,148c1.5,1.09,3.54,2,5.11,1a3.5,3.5,0,0,0,1.36-3.44A10.32,10.32,0,0,0,204,142a20.41,20.41,0,0,0,9.25,7.1,2.86,2.86,0,0,0,2.5.07C216.81,148.46,216.59,146.86,216.12,145.69Z" style="fill:#263238"></path><path d="M167,160.72c-.23-.13-9.59-3.92-10.27,5.94s9.37,8.52,9.41,8.24S167,160.72,167,160.72Z" style="fill:#ffbe9d"></path><path d="M163.33,171s-.18.11-.48.22a1.69,1.69,0,0,1-1.28-.06c-1-.45-1.78-2.17-1.71-4a5.72,5.72,0,0,1,.65-2.43,2,2,0,0,1,1.38-1.23.88.88,0,0,1,1,.54c.11.28,0,.48.08.5s.23-.15.18-.57a1.11,1.11,0,0,0-.35-.64,1.3,1.3,0,0,0-.93-.32,2.42,2.42,0,0,0-1.9,1.41,5.78,5.78,0,0,0-.79,2.71c-.07,2,.82,3.92,2.22,4.43a1.85,1.85,0,0,0,1.59-.15C163.3,171.19,163.37,171,163.33,171Z" style="fill:#eb996e"></path><path d="M179.47,140.77a2.25,2.25,0,0,1-.26.56c-.19.35-.48.87-.89,1.51a31.78,31.78,0,0,1-4,5.07,33.25,33.25,0,0,1-3.32,3c-.65.49-1.3,1-2,1.46a4.67,4.67,0,0,1-2.58.88,3,3,0,0,1-2.45-1.5,5.4,5.4,0,0,1-.73-2.9c.1-2.08,1.19-3.89,1.6-5.87a7.56,7.56,0,0,0,.13-.76l.44.21-4.45,3.94-2.11,1.87a5.55,5.55,0,0,1-2.4,1.41,2,2,0,0,1-1.42-.26,2.3,2.3,0,0,1-.85-1.09,5.92,5.92,0,0,1-.34-2.46,17.56,17.56,0,0,1,3.42-10,15,15,0,0,1,1.1-1.3,2.94,2.94,0,0,1,.43-.41s-.53.63-1.37,1.83a17.82,17.82,0,0,0-2.57,5.61,17.15,17.15,0,0,0-.58,4.23,5.52,5.52,0,0,0,.32,2.28,1.57,1.57,0,0,0,1.77,1,5,5,0,0,0,2.17-1.32l2.1-1.87c1.43-1.27,2.9-2.59,4.42-3.93l.52-.46-.08.67c0,.26-.08.54-.14.82-.45,2.08-1.52,3.89-1.6,5.78a5,5,0,0,0,.64,2.62,2.48,2.48,0,0,0,2,1.28,4.27,4.27,0,0,0,2.32-.78c.71-.45,1.38-.95,2-1.42a35.73,35.73,0,0,0,3.33-2.91,35.19,35.19,0,0,0,4.11-4.92c.43-.62.75-1.12,1-1.45A5.08,5.08,0,0,1,179.47,140.77Z" style="fill:#455a64"></path><path d="M142.8,320.42s3.31,14.88,8.63,16.35c3.36.93,50.87,7.25,50.87,7.25l12.93,10.73,43.5-24.7L229.49,312.1,206.8,298.91l-39.22,1.64Z" style="fill:#263238"></path><path d="M197.18,206.84c-7.7,2.72-23.5-2.44-35.52-8.55-.71.24-20.16,5.63-23.69,31.07s.6,86.47.6,86.47l1.84,8.28s29.31-16.66,41.32-19.25,25.07-5.95,25.07-5.95Z" style="fill:#9868F0"></path><g style="opacity:0.30000000000000004"><path d="M147.34,242s5.13,26.09,12.95,32.84,15.36,7.39,21.48,5.57S203.31,269,203.31,269l-.51-6.26s-35.17-9-35.22-9.29S147.34,242,147.34,242Z"></path></g><path d="M164.62,263.06s4.94,13.67,17.92,10.63,53.74-25.55,53.74-25.55l-8.11-14-40.6,12.57Z" style="fill:#ffbe9d"></path><path d="M222.81,236.07l8.12-9.93s12.77-8.11,15.41-7.91,6.08.81,4.66,4.66c0,0,4.06,2,3.25,4.26S250.6,230,250.6,230s4.47.61,3.75,3.45-2.33,2.63-2.33,2.63,1.21,1.63.2,2.44a35.4,35.4,0,0,1-5.07,2.43s-4.89,4.87-8.53,6.69a29.16,29.16,0,0,1-7.69,2.44Z" style="fill:#ffbe9d"></path><path d="M173.78,209.88a14.94,14.94,0,0,0-20.47,2.76,31.57,31.57,0,0,0-3.94,6.22c-2.8,5.95-4.3,19.49-4.3,19.49l16.45,27.09,31.65-22.53L179.24,214.3S176.89,212.15,173.78,209.88Z" style="fill:#9868F0"></path><path d="M154,207a2.29,2.29,0,0,1,.41-.14l1.22-.36c.28-.07.57-.18.91-.24l1.12-.16A12.44,12.44,0,0,1,159,206l1.5,0a17.9,17.9,0,0,1,7.4,1.87,21,21,0,0,1,4,2.57,22.91,22.91,0,0,1,3.75,3.8h0l17.47,28.58.12.2-.19.14-5.22,3.71L161.4,265.62l-.2.14-.12-.2c-4.89-8.13-9-14.91-11.85-19.69-1.41-2.36-2.51-4.23-3.29-5.53l-.85-1.47a2.94,2.94,0,0,1-.27-.52,5.25,5.25,0,0,1,.33.48c.22.35.52.83.91,1.43l3.39,5.47,12,19.59-.32-.06,26.41-18.85,5.22-3.71-.08.35c-6.54-10.8-12.52-20.66-17.36-28.64h0a22.55,22.55,0,0,0-7.57-6.31,18,18,0,0,0-7.27-1.93H159a10,10,0,0,0-1.3.13l-1.11.13c-.34,0-.64.15-.91.21l-1.23.3Z" style="fill:#263238"></path><path d="M253.27,333.15s7.22,12.17,3.63,20.69-51.8,54-51.8,54L188.45,394.2l32.35-42.83Z" style="fill:#ffbe9d"></path><path d="M207.25,405.7l-1,1.08s11.43,24.09,8.44,27.72L178.78,401l11.65-11.5C193.46,396.93,198.79,402.43,207.25,405.7Z" style="fill:#9868F0"></path><path d="M178.78,401l2.8-2.77L215,431.36s.95,2.18-.28,3.14Z" style="fill:#e0e0e0"></path><path d="M202,410.82s.11-.37.54-.79a4.87,4.87,0,0,1,2-1.12,5,5,0,0,1,2.31-.08c.58.14.89.34.87.4a11.89,11.89,0,0,0-3,.19A11.67,11.67,0,0,0,202,410.82Z" style="fill:#263238"></path><path d="M200.47,408.65a5.29,5.29,0,0,1,5.86-1.61,25.42,25.42,0,0,0-3.05.39A26.21,26.21,0,0,0,200.47,408.65Z" style="fill:#263238"></path><path d="M204,414.27c-.13,0,.38-1.24,1.69-2.06a3.32,3.32,0,0,1,2.59-.64c0,.16-1.14.33-2.31,1.09S204.09,414.36,204,414.27Z" style="fill:#263238"></path><path d="M207.46,409.64a2.92,2.92,0,0,1,.54-1.75,9.24,9.24,0,0,1,1.17-1.61c.25-.28.51-.56.79-.85a3.67,3.67,0,0,1,.49-.44.94.94,0,0,1,.83-.14.73.73,0,0,1,.47.76,1.51,1.51,0,0,1-.21.69,5.5,5.5,0,0,1-.66,1,6.18,6.18,0,0,1-1.52,1.32,3.12,3.12,0,0,1-1.73.59c0-.08.64-.28,1.52-.9A6.59,6.59,0,0,0,210.5,407a7,7,0,0,0,.59-.93c.17-.32.19-.69,0-.71s-.5.15-.78.45l-.8.81a12.37,12.37,0,0,0-1.21,1.47C207.7,409,207.55,409.66,207.46,409.64Z" style="fill:#263238"></path><path d="M207.81,409.76s-.11,0-.31-.05l-.15,0,.15-.1a5.93,5.93,0,0,1,1.92-.76,7.23,7.23,0,0,1,1.62-.18,7.13,7.13,0,0,1,.91.05,1.49,1.49,0,0,1,.54.14.81.81,0,0,1,.43.53.71.71,0,0,1-.42.76,2.3,2.3,0,0,1-.61.18,7.37,7.37,0,0,1-1.11.12,6.51,6.51,0,0,1-1.87-.23,3.1,3.1,0,0,1-1.53-.77c0-.08.62.21,1.62.4a6.49,6.49,0,0,0,1.76.11,6.24,6.24,0,0,0,1-.14c.38,0,.69-.22.62-.32,0-.3-.87-.3-1.37-.33a7.42,7.42,0,0,0-1.53.1,12.14,12.14,0,0,0-1.93.49v-.15C207.74,409.67,207.82,409.74,207.81,409.76Z" style="fill:#263238"></path><rect x="145.34" y="408.22" width="131.79" height="10.58" transform="translate(-202.28 624.74) rotate(-90)" style="fill:#455a64"></rect><rect x="120.61" y="408.61" width="89.81" height="8.75" style="fill:#455a64"></rect><rect x="112.99" y="209.01" width="11.3" height="270.4" style="fill:#455a64"></rect><rect x="112.99" y="338.01" width="108.92" height="19.03" style="fill:#455a64"></rect><path d="M221.91,357c0,.14-24.32.26-54.31.26s-54.31-.12-54.31-.26,24.31-.26,54.31-.26S221.91,356.9,221.91,357Z" style="fill:#263238"></path><path d="M166.1,338c0,.14-12,.26-26.7.26s-26.7-.12-26.7-.26,12-.26,26.7-.26S166.1,337.87,166.1,338Z" style="fill:#263238"></path><path d="M124.29,360.2c.15,0,.26,24.22.26,54.08s-.11,54.08-.26,54.08-.26-24.21-.26-54.08S124.15,360.2,124.29,360.2Z" style="fill:#263238"></path></g></svg>